<svg width="100" height="100" viewBox="0 0 100 100" fill="none" xmlns="http://www.w3.org/2000/svg">
<g id="arrow-down" clip-path="url(#clip0_97_42)">
<path id="Vector" d="M100 50.7091C100.003 51.2574 99.898 51.801 99.6907 52.3087C99.4833 52.8163 99.1778 53.2781 98.7916 53.6674C98.4043 54.0579 97.9434 54.3679 97.4357 54.5795C96.9279 54.791 96.3833 54.8999 95.8333 54.8999C95.2832 54.8999 94.7386 54.791 94.2309 54.5795C93.7231 54.3679 93.2623 54.0579 92.875 53.6674L58.8333 19.6257C56.4895 17.2849 53.3125 15.9701 50 15.9701C46.6874 15.9701 43.5104 17.2849 41.1666 19.6257L7.12496 53.6674C6.73646 54.0559 6.27526 54.3641 5.76766 54.5743C5.26007 54.7846 4.71604 54.8928 4.16663 54.8928C3.05703 54.8928 1.99289 54.452 1.20829 53.6674C0.423693 52.8828 -0.0170898 51.8187 -0.0170898 50.7091C-0.0170898 49.5995 0.423693 48.5353 1.20829 47.7507L35.25 13.7091C37.1852 11.7689 39.4842 10.2297 42.0152 9.17939C44.5463 8.12912 47.2597 7.5885 50 7.5885C52.7403 7.5885 55.4536 8.12912 57.9847 9.17939C60.5157 10.2297 62.8147 11.7689 64.75 13.7091L98.7916 47.7507C99.1778 48.1401 99.4833 48.6018 99.6907 49.1095C99.898 49.6171 100.003 50.1607 100 50.7091Z" fill="white"/>
<path id="Vector_2" d="M100 92.3751C100.003 92.9235 99.898 93.467 99.6907 93.9747C99.4833 94.4824 99.1778 94.9441 98.7916 95.3334C98.4043 95.724 97.9434 96.0339 97.4357 96.2455C96.9279 96.457 96.3833 96.5659 95.8333 96.5659C95.2832 96.5659 94.7386 96.457 94.2309 96.2455C93.7231 96.0339 93.2623 95.724 92.875 95.3334L52.9583 55.3751C52.5709 54.9846 52.1101 54.6746 51.6024 54.463C51.0946 54.2515 50.55 54.1426 50 54.1426C49.4499 54.1426 48.9053 54.2515 48.3976 54.463C47.8898 54.6746 47.429 54.9846 47.0416 55.3751L7.12496 95.3334C6.34036 96.118 5.27622 96.5588 4.16663 96.5588C3.05703 96.5588 1.99289 96.118 1.20829 95.3334C0.423693 94.5488 -0.0170898 93.4847 -0.0170898 92.3751C-0.0170898 91.2655 0.423693 90.2014 1.20829 89.4168L41.1666 49.5001C43.5104 47.1592 46.6874 45.8444 50 45.8444C53.3125 45.8444 56.4895 47.1592 58.8333 49.5001L98.7916 89.4168C99.1778 89.8061 99.4833 90.2678 99.6907 90.7755C99.898 91.2831 100.003 91.8267 100 92.3751Z" fill="white"/>
</g>
<defs>
<clipPath id="clip0_97_42">
<rect width="100" height="100" fill="white" transform="matrix(0 -1 1 0 0 100)"/>
</clipPath>
</defs>
</svg>
