<svg width="100" height="100" viewBox="0 0 100 100" fill="none" xmlns="http://www.w3.org/2000/svg">
<g id="arrow-down" clip-path="url(#clip0_46_35)">
<path id="Vector" d="M4.57764e-05 49.2909C-0.00312042 48.7426 0.101982 48.199 0.309334 47.6913C0.516685 47.1837 0.822212 46.7219 1.20838 46.3326C1.59573 45.9421 2.05656 45.6321 2.56431 45.4205C3.07206 45.209 3.61666 45.1001 4.16671 45.1001C4.71677 45.1001 5.26137 45.209 5.76912 45.4205C6.27686 45.6321 6.73769 45.9421 7.12505 46.3326L41.1667 80.3743C43.5105 82.7151 46.6875 84.0299 50 84.0299C53.3126 84.0299 56.4896 82.7151 58.8334 80.3743L92.875 46.3326C93.2635 45.9441 93.7247 45.6359 94.2323 45.4257C94.7399 45.2154 95.284 45.1072 95.8334 45.1072C96.943 45.1072 98.0071 45.548 98.7917 46.3326C99.5763 47.1172 100.017 48.1813 100.017 49.2909C100.017 50.4005 99.5763 51.4647 98.7917 52.2493L64.75 86.2909C62.8148 88.2311 60.5158 89.7703 57.9848 90.8206C55.4537 91.8709 52.7403 92.4115 50 92.4115C47.2597 92.4115 44.5464 91.8709 42.0153 90.8206C39.4843 89.7703 37.1853 88.2311 35.25 86.2909L1.20838 52.2493C0.822212 51.8599 0.516685 51.3982 0.309334 50.8905C0.101982 50.3829 -0.00312042 49.8393 4.57764e-05 49.2909Z" fill="white"/>
<path id="Vector_2" d="M4.57764e-05 7.62479C-0.00312042 7.07643 0.101982 6.53283 0.309334 6.02518C0.516685 5.51752 0.822212 5.05579 1.20838 4.66645C1.59573 4.27592 2.05656 3.96594 2.56431 3.75441C3.07206 3.54287 3.61666 3.43396 4.16671 3.43396C4.71677 3.43396 5.26137 3.54287 5.76912 3.75441C6.27686 3.96594 6.73769 4.27592 7.12505 4.66645L47.0417 44.6248C47.4291 45.0153 47.8899 45.3253 48.3976 45.5368C48.9054 45.7484 49.45 45.8573 50 45.8573C50.5501 45.8573 51.0947 45.7484 51.6024 45.5368C52.1102 45.3253 52.571 45.0153 52.9584 44.6248L92.875 4.66645C93.6596 3.88185 94.7238 3.44107 95.8334 3.44107C96.943 3.44107 98.0071 3.88185 98.7917 4.66645C99.5763 5.45105 100.017 6.5152 100.017 7.62479C100.017 8.73438 99.5763 9.79852 98.7917 10.5831L58.8334 50.4998C56.4896 52.8406 53.3126 54.1555 50 54.1555C46.6875 54.1555 43.5105 52.8406 41.1667 50.4998L1.20838 10.5831C0.822212 10.1938 0.516685 9.73205 0.309334 9.2244C0.101982 8.71674 -0.00312042 8.17315 4.57764e-05 7.62479Z" fill="white"/>
</g>
<defs>
<clipPath id="clip0_46_35">
<rect width="100" height="100" fill="white" transform="matrix(0 1 -1 0 100 0)"/>
</clipPath>
</defs>
</svg>
